<svg width="290" height="103" viewBox="0 0 290 103" fill="none" xmlns="http://www.w3.org/2000/svg">
<g clip-path="url(#clip0_417_506)">
<path d="M0 99.2424C0 101.318 0.871866 103 1.9475 103H288.053C289.128 103 290 101.318 290 99.2424V3.75761C290 1.68222 289.128 0 288.053 0H1.9475C0.871866 0 0 1.68222 0 3.75761V99.2424Z" fill="#007958"/>
<path d="M71.4346 69.8079V29H72.6043V69.8079H71.4346Z" fill="white"/>
<path d="M43 32.661C43 30.8578 44.4616 29.3962 46.2648 29.3962H59.5466C61.3498 29.3962 62.8114 30.8578 62.8114 32.661V45.9428C62.8114 47.746 61.3498 49.2076 59.5466 49.2076H46.2648C44.4616 49.2076 43 47.746 43 45.9428V32.661Z" fill="#FF8500"/>
<path d="M88.4693 60.285C88.4693 58.23 86.9703 56.787 84.2123 56.787C83.1753 56.787 82.2133 56.806 81.3623 56.843V69.337H82.5473V64.284C82.9173 64.321 83.3063 64.34 83.6953 64.34C86.3593 64.338 88.4693 62.728 88.4693 60.285ZM87.2293 60.488C87.2293 62.191 85.9333 63.338 83.7863 63.357C83.3423 63.357 82.9163 63.32 82.5463 63.264V57.804C82.9723 57.767 83.4163 57.767 83.9903 57.767C86.1743 57.768 87.2293 58.712 87.2293 60.488ZM95.2803 59.989C93.2623 59.748 92.3003 61.192 91.9483 62.562L91.9113 62.543C92.0783 61.729 92.1523 60.785 92.1523 60.137H90.9673V69.336H92.1333V65.671C92.1333 62.469 93.1333 60.785 95.2243 61.118C95.2253 61.118 95.2803 59.989 95.2803 59.989ZM104.624 64.597C104.624 61.173 102.755 59.988 100.607 59.988C97.8493 59.988 96.2943 62.191 96.2943 64.763C96.2943 67.984 97.8493 69.483 100.292 69.483C102.996 69.484 104.624 67.281 104.624 64.597ZM103.421 64.653C103.421 67.355 102.014 68.521 100.497 68.521C98.5913 68.521 97.5173 67.114 97.5173 64.671C97.5173 62.098 98.9613 60.932 100.478 60.932C102.422 60.933 103.421 62.339 103.421 64.653ZM108.826 57.545C108.826 57.064 108.456 56.712 107.993 56.712C107.53 56.712 107.16 57.082 107.16 57.545C107.16 58.008 107.53 58.378 107.993 58.378C108.456 58.378 108.826 58.008 108.826 57.545ZM108.567 70.594V60.136H107.401V70.668C107.401 72.593 107.086 73.111 105.772 73.111C105.346 73.111 104.921 73.018 104.569 72.889L104.439 73.944C104.791 74.055 105.272 74.111 105.679 74.111C107.882 74.111 108.567 73.038 108.567 70.594ZM118.71 63.691C118.71 61.711 117.673 59.989 115.175 59.989C112.677 59.989 111.196 62.025 111.196 64.764C111.196 68.003 112.658 69.484 115.398 69.484C116.546 69.484 117.545 69.28 118.378 68.947L118.267 67.91C117.601 68.243 116.564 68.502 115.602 68.502C113.455 68.502 112.326 67.28 112.437 64.3H118.675C118.71 64.042 118.71 63.82 118.71 63.691ZM117.469 63.394H112.509C112.768 61.858 113.731 60.877 115.1 60.877C116.6 60.877 117.507 61.914 117.469 63.394ZM127.946 69.336L123.892 64.32L127.631 60.137H126.224L122.596 64.32V55.824H121.43V69.336H122.596V64.45L126.39 69.336H127.946ZM134.516 69.299V68.262C134.109 68.373 133.628 68.429 133.146 68.429C131.998 68.429 131.684 67.985 131.684 66.226V61.062H134.516V60.137H131.684V56.713L130.518 57.028V60.138H128.426V61.063H130.536V66.801C130.536 68.652 131.036 69.466 132.831 69.466C133.406 69.465 134.035 69.391 134.516 69.299ZM143.604 63.691C143.604 61.711 142.567 59.989 140.069 59.989C137.571 59.989 136.089 62.025 136.089 64.764C136.089 68.003 137.551 69.484 140.291 69.484C141.439 69.484 142.438 69.28 143.271 68.947L143.16 67.91C142.494 68.243 141.457 68.502 140.495 68.502C138.348 68.502 137.219 67.28 137.33 64.3H143.568C143.604 64.042 143.604 63.82 143.604 63.691ZM142.364 63.394H137.404C137.663 61.858 138.626 60.877 139.995 60.877C141.494 60.877 142.401 61.914 142.364 63.394ZM153.488 69.336V62.932C153.488 61.285 152.84 59.971 150.712 59.971C149.083 59.971 147.899 60.878 147.38 62.285L147.343 62.266C147.454 61.692 147.51 60.767 147.51 60.137H146.325V69.336H147.491V64.931C147.491 62.617 148.713 60.914 150.452 60.914C151.896 60.914 152.321 61.821 152.321 63.357V69.335L153.488 69.336ZM161.129 69.299V68.262C160.722 68.373 160.241 68.429 159.759 68.429C158.611 68.429 158.297 67.985 158.297 66.226V61.062H161.129V60.137H158.297V56.713L157.131 57.028V60.138H155.039V61.063H157.149V66.801C157.149 68.652 157.649 69.466 159.444 69.466C160.018 69.465 160.647 69.391 161.129 69.299ZM176.102 60.137H174.843L173.048 66.078C172.77 67.003 172.585 67.559 172.419 68.225H172.4C172.252 67.688 172.122 67.225 171.734 66.041L169.809 60.137H168.402L166.496 66.06C166.274 66.763 166.052 67.522 165.885 68.207H165.866C165.718 67.652 165.477 66.874 165.255 66.06L163.552 60.137H162.219L165.088 69.336H166.495L168.309 63.598C168.55 62.821 168.79 62.062 168.994 61.284H169.013C169.161 61.858 169.328 62.413 169.513 62.968L171.697 69.335H173.085L176.102 60.137ZM179.693 57.545C179.693 57.064 179.323 56.712 178.86 56.712C178.397 56.712 178.027 57.082 178.027 57.545C178.027 58.008 178.397 58.378 178.86 58.378C179.323 58.378 179.693 58.008 179.693 57.545ZM179.434 69.336V60.137H178.268V69.336H179.434ZM188.799 68.91L188.688 67.892C188.04 68.225 187.115 68.447 186.245 68.447C183.894 68.447 183.302 66.8 183.302 64.819C183.302 62.487 184.339 60.932 186.412 60.932C187.226 60.932 188.004 61.117 188.633 61.376L188.763 60.339C188.097 60.135 187.301 60.024 186.542 60.024C183.581 60.024 182.063 62.004 182.063 65.059C182.063 68.613 184.062 69.446 186.005 69.446C187.17 69.447 188.188 69.151 188.799 68.91ZM197.702 69.336L193.648 64.32L197.387 60.137H195.98L192.352 64.32V55.824H191.186V69.336H192.352V64.45L196.146 69.336H197.702ZM201.108 69.336V55.824H199.942V69.336H201.108ZM211.824 69.336V60.137H210.658V64.542C210.658 66.856 209.436 68.559 207.697 68.559C206.235 68.559 205.828 67.652 205.828 66.116V60.138H204.662V66.542C204.662 68.189 205.31 69.503 207.438 69.503C209.067 69.503 210.251 68.596 210.77 67.189L210.807 67.208C210.696 67.782 210.64 68.707 210.64 69.337C210.64 69.336 211.824 69.336 211.824 69.336ZM222.541 69.336V62.932C222.541 61.285 221.893 59.971 219.765 59.971C218.136 59.971 216.952 60.878 216.433 62.285L216.396 62.266C216.507 61.692 216.563 60.767 216.563 60.137H215.378V69.336H216.544V64.931C216.544 62.617 217.766 60.914 219.505 60.914C220.949 60.914 221.374 61.821 221.374 63.357V69.335L222.541 69.336ZM233.739 70.854C233.739 69.281 232.647 68.3 230.648 68.3H228.76C227.612 68.3 227.057 68.041 227.057 67.467C227.057 67.115 227.279 66.782 227.779 66.579C228.131 66.672 228.667 66.746 229.13 66.746C231.795 66.746 233.128 65.21 233.128 63.266C233.128 62.304 232.758 61.508 232.166 61.063H233.906V60.138H230.778C230.297 60.045 229.927 59.99 229.445 59.99C226.983 59.99 225.484 61.6 225.484 63.525C225.484 64.728 225.928 65.672 226.854 66.227C226.206 66.523 225.855 67.06 225.855 67.671C225.855 68.263 226.207 68.726 226.78 69.004C225.892 69.467 225.151 70.318 225.151 71.503C225.151 73.243 226.65 74.205 228.964 74.205C231.722 74.204 233.739 72.779 233.739 70.854ZM231.944 63.394C231.944 64.967 230.907 65.837 229.297 65.837C227.631 65.837 226.669 64.986 226.669 63.394C226.669 61.95 227.668 60.895 229.371 60.895C231 60.896 231.944 61.821 231.944 63.394ZM232.554 71.002C232.554 72.316 231.295 73.223 229.167 73.223C227.557 73.223 226.317 72.575 226.317 71.298C226.317 70.484 226.891 69.78 227.742 69.336H230.333C231.814 69.336 232.554 69.947 232.554 71.002Z" fill="white"/>
<path d="M179.953 49.2073V44.9043H195.528V41.4203H182.958C181.301 41.4203 179.954 40.0723 179.954 38.4163V32.3753C179.954 30.7193 181.302 29.3713 182.958 29.3713H199.832V33.6323H184.258V37.1163H196.786C198.465 37.1163 199.831 38.4823 199.831 40.1623V46.2043C199.831 47.8323 198.436 49.2073 196.786 49.2073H179.953ZM170.692 49.2073V41.4203H159.421V49.2073H155.117V29.3713H159.421V37.1163H170.692V29.3713H174.996V49.2073H170.692ZM133.39 49.2073C131.762 49.2073 130.386 47.8323 130.386 46.2043V32.3753C130.386 30.7193 131.734 29.3713 133.39 29.3713H150.264V33.6323H134.69V44.9043H150.264V49.2073H133.39ZM108.625 49.2073C106.969 49.2073 105.622 47.8603 105.622 46.2043V29.3713H109.925V44.9043H121.155V29.3713H125.458V46.2043C125.458 47.8603 124.111 49.2073 122.456 49.2073H108.625ZM81.2295 49.2073V32.3753C81.2295 30.7193 82.5955 29.3713 84.2745 29.3713H101.107V33.6323H85.5315V37.1163H101.107V41.4203H85.5315V49.2073H81.2295Z" fill="white"/>
</g>
<defs>
<clipPath id="clip0_417_506">
<rect width="290" height="103" fill="white"/>
</clipPath>
</defs>
</svg>
