<svg xmlns="http://www.w3.org/2000/svg" xmlns:xlink="http://www.w3.org/1999/xlink" width="500" zoomAndPan="magnify" viewBox="0 0 375 374.999991" height="500" preserveAspectRatio="xMidYMid meet" version="1.0"><defs><clipPath id="ec51a869b6"><path d="M 37.5 38.714844 L 338 38.714844 L 338 338 L 37.5 338 Z M 37.5 38.714844 " clip-rule="nonzero"/></clipPath><clipPath id="1a94efac16"><path d="M 337.492188 337.515625 L 337.492188 224.996094 L 149.984375 224.996094 L 149.984375 150.007812 L 337.492188 150.007812 L 337.492188 38.714844 L 87.292969 38.714844 C 60.242188 38.714844 37.5 60.859375 37.5 88.507812 L 37.5 287.6875 C 37.5 314.738281 60.242188 337.480469 87.292969 337.480469 Z M 337.492188 337.515625 " clip-rule="nonzero"/></clipPath><clipPath id="956fd3db23"><path d="M 0.5 0.714844 L 300.679688 0.714844 L 300.679688 299.679688 L 0.5 299.679688 Z M 0.5 0.714844 " clip-rule="nonzero"/></clipPath><clipPath id="bff5795466"><path d="M 300.492188 299.515625 L 300.492188 186.996094 L 112.984375 186.996094 L 112.984375 112.007812 L 300.492188 112.007812 L 300.492188 0.714844 L 50.292969 0.714844 C 23.242188 0.714844 0.5 22.859375 0.5 50.507812 L 0.5 249.6875 C 0.5 276.738281 23.242188 299.480469 50.292969 299.480469 Z M 300.492188 299.515625 " clip-rule="nonzero"/></clipPath><clipPath id="a67329f803"><rect x="0" width="301" y="0" height="300"/></clipPath></defs><g clip-path="url(#ec51a869b6)"><g clip-path="url(#1a94efac16)"><g transform="matrix(1, 0, 0, 1, 37, 38)"><g clip-path="url(#a67329f803)"><g clip-path="url(#956fd3db23)"><g clip-path="url(#bff5795466)"><path fill="#f5821f" d="M 0.5 0.714844 L 300.449219 0.714844 L 300.449219 299.5 L 0.5 299.5 Z M 0.5 0.714844 " fill-opacity="1" fill-rule="nonzero"/></g></g></g></g></g></g></svg>