<svg width="64" height="64" viewBox="0 0 64 64" fill="none" xmlns="http://www.w3.org/2000/svg">
<path fill-rule="evenodd" clip-rule="evenodd" d="M62 20C62 17.348 60.946 14.804 59.072 12.928C57.196 11.054 54.652 10 52 10C41.356 10 22.644 10 12 10C9.348 10 6.804 11.054 4.928 12.928C3.054 14.804 2 17.348 2 20C2 26.972 2 37.028 2 44C2 46.652 3.054 49.196 4.928 51.072C6.804 52.946 9.348 54 12 54C22.644 54 41.356 54 52 54C54.652 54 57.196 52.946 59.072 51.072C60.946 49.196 62 46.652 62 44C62 37.028 62 26.972 62 20ZM8.888 19.558C8.888 19.558 19.178 28.032 25.632 33.346C29.33 36.392 34.67 36.386 38.362 33.332C44.836 27.978 55.188 19.414 55.188 19.414C56.038 18.71 56.158 17.448 55.454 16.598C54.752 15.748 53.49 15.628 52.638 16.332C52.638 16.332 42.286 24.894 35.814 30.25C33.598 32.082 30.394 32.086 28.174 30.258L11.43 16.47C10.578 15.768 9.318 15.89 8.616 16.742C7.914 17.594 8.036 18.856 8.888 19.558Z" fill="white"/>
</svg>
